<?xml version="1.0" standalone="no"?><!DOCTYPE svg PUBLIC "-//W3C//DTD SVG 1.1//EN" "http://www.w3.org/Graphics/SVG/1.1/DTD/svg11.dtd"><svg t="1563105976691" class="icon" viewBox="0 0 1307 1024" version="1.1" xmlns="http://www.w3.org/2000/svg" p-id="1959" xmlns:xlink="http://www.w3.org/1999/xlink" width="255.2734375" height="200"><defs><style type="text/css"></style></defs><path d="M1226.833109 1016.436594H917.13901a44.640317 44.640317 0 0 1-44.630178-44.640317v-454.108515a44.640317 44.640317 0 0 1 44.630178-44.640316h309.704238a44.640317 44.640317 0 0 1 44.640316 44.640316v454.108515a44.640317 44.640317 0 0 1-44.640316 44.640317z" fill="#E87E04" p-id="1960"></path><path d="M1258.171564 562.328079H917.13901a44.640317 44.640317 0 0 1-44.630178-44.640317V339.410376a44.640317 44.640317 0 0 1 44.630178-44.640317h341.042693a44.640317 44.640317 0 0 1 44.640317 44.640317V517.677624a44.640317 44.640317 0 0 1-44.640317 44.640317z" fill="#D55400" p-id="1961"></path><path d="M390.742178 1016.436594H81.058218A44.640317 44.640317 0 0 1 36.397624 971.786139v-454.108515a44.640317 44.640317 0 0 1 44.640317-44.640317H390.742178a44.640317 44.640317 0 0 1 44.630178 44.640317v454.108515a44.630178 44.630178 0 0 1-44.630178 44.640316z" fill="#F59D00" p-id="1962"></path><path d="M390.742178 562.328079H49.719762A44.640317 44.640317 0 0 1 5.069307 517.677624V339.410376a44.640317 44.640317 0 0 1 44.630178-44.640317h341.052832a44.640317 44.640317 0 0 1 44.630178 44.640317V517.677624a44.630178 44.630178 0 0 1-44.630178 44.640317z" fill="#E87E04" p-id="1963"></path><path d="M961.769188 1016.436594H346.112v-775.198416a44.640317 44.640317 0 0 1 44.640317-44.640317h526.376554a44.640317 44.640317 0 0 1 44.640317 44.630179v775.198415z" fill="#F2C500" p-id="1964"></path><path d="M961.769188 241.22804a44.640317 44.640317 0 0 0-44.640317-44.630179H653.940594v819.838733h307.828594v-775.198416z" fill="#F59D00" p-id="1965"></path><path d="M813.968475 1016.436594H493.912713V786.320475a44.640317 44.640317 0 0 1 44.630178-44.630178h230.795406a44.640317 44.640317 0 0 1 44.630178 44.630178v230.116119z" fill="#E87E04" p-id="1966"></path><path d="M972.516119 285.858218H335.365069a44.640317 44.640317 0 0 1-44.640317-44.630178V52.203723A44.640317 44.640317 0 0 1 335.365069 7.563406h637.15105a44.640317 44.640317 0 0 1 44.640317 44.640317v189.024317a44.630178 44.630178 0 0 1-44.640317 44.630178z" fill="#F59D00" p-id="1967"></path><path d="M972.516119 7.563406H653.940594v278.30495h318.585663a44.640317 44.640317 0 0 0 44.630179-44.640316V52.203723A44.640317 44.640317 0 0 0 972.516119 7.563406zM760.081743 473.179248H547.809584a44.640317 44.640317 0 0 1 0-89.270496h212.272159a44.640317 44.640317 0 0 1 0 89.270496zM760.081743 604.52499H547.809584a44.640317 44.640317 0 0 1 0-89.270495h212.272159a44.640317 44.640317 0 0 1 0 89.270495z" fill="#E87E04" p-id="1968"></path><path d="M813.968475 786.330614a44.640317 44.640317 0 0 0-44.630178-44.640317H653.940594v274.746297h160.027881V786.320475zM760.081743 383.908752H653.940594v89.270496H760.091881a44.640317 44.640317 0 0 0 0-89.270496zM760.081743 515.254495H653.940594v89.270495H760.091881a44.640317 44.640317 0 0 0 0-89.270495z" fill="#D55400" p-id="1969"></path></svg>