<?xml version="1.0" standalone="no"?>
<!DOCTYPE svg PUBLIC "-//W3C//DTD SVG 20010904//EN"
 "http://www.w3.org/TR/2001/REC-SVG-20010904/DTD/svg10.dtd">
<svg version="1.0" xmlns="http://www.w3.org/2000/svg"
 width="2868.000000pt" height="1605.000000pt" viewBox="0 0 2868.000000 1605.000000"
 preserveAspectRatio="xMidYMid meet">
<metadata>
Created by potrace 1.15, written by Peter Selinger 2001-2017
</metadata>
<g transform="translate(0.000000,1605.000000) scale(0.100000,-0.100000)"
fill="#000000" stroke="none">
<path d="M22749 15833 c-11 -13 -13 -53 -11 -179 1 -89 -2 -174 -7 -188 -6
-14 -30 -50 -54 -80 -25 -30 -52 -77 -62 -106 -16 -48 -16 -60 -1 -178 8 -70
18 -192 22 -272 3 -80 8 -163 10 -185 1 -22 -1 -152 -7 -290 -11 -275 -20
-322 -67 -346 -15 -7 -50 -28 -78 -45 -44 -28 -54 -40 -69 -84 -11 -33 -15
-65 -11 -89 83 -494 86 -916 11 -1675 -3 -32 -13 -48 -53 -85 -27 -25 -60 -66
-73 -91 -24 -45 -24 -46 -22 -350 2 -168 7 -460 13 -650 21 -747 21 -748 -3
-770 -12 -12 -35 -20 -56 -20 -54 -1 -117 -33 -136 -71 -15 -28 -17 -61 -12
-283 3 -138 11 -294 17 -346 15 -133 15 -439 -1 -525 -17 -92 -16 -162 6 -320
19 -145 21 -287 13 -957 -5 -364 -8 -421 -22 -443 -19 -29 -33 -32 -139 -38
-58 -3 -85 -9 -105 -24 -48 -36 -50 -60 -12 -201 78 -298 91 -381 92 -587 2
-169 -1 -205 -26 -330 -65 -334 -70 -388 -63 -696 5 -272 -7 -453 -38 -559 -9
-30 -19 -65 -22 -78 -9 -37 -31 -42 -164 -32 -352 27 -952 59 -1244 66 -174 4
-277 11 -310 20 -71 20 -119 63 -147 132 -22 54 -23 69 -22 277 1 121 7 445
13 720 13 593 28 1449 37 2060 3 242 9 611 14 820 13 617 12 622 -240 925
-275 330 -421 541 -526 760 -25 52 -51 103 -56 114 -22 42 -78 227 -97 321
-11 55 -25 160 -30 233 -8 126 -13 153 -27 140 -22 -23 -25 -469 -19 -3308 7
-3267 9 -3085 -42 -3172 -45 -77 -187 -118 -332 -96 -137 21 -191 73 -217 208
-13 67 -11 202 17 910 7 173 13 1079 16 2314 4 1649 3 2028 -8 2024 -21 -7
-52 -190 -84 -493 -25 -248 -35 -315 -61 -421 -42 -171 -49 -184 -179 -320
-323 -341 -498 -612 -602 -934 -57 -178 -89 -418 -80 -598 3 -59 13 -237 21
-396 14 -261 14 -336 1 -755 -8 -256 -19 -540 -25 -631 -5 -91 -9 -265 -10
-388 0 -353 -22 -437 -130 -492 -47 -23 -87 -28 -280 -35 -91 -4 -259 -11
-375 -17 -115 -5 -279 -12 -363 -15 -105 -4 -152 -9 -149 -16 4 -12 37 -21
132 -37 129 -22 246 -29 670 -40 397 -11 445 -11 495 4 70 21 111 46 144 88
60 80 59 60 67 808 4 377 9 744 13 815 3 72 8 317 11 545 11 814 22 981 87
1260 69 296 205 549 413 769 56 59 95 109 95 121 0 29 31 25 62 -8 37 -41 51
-84 44 -139 -6 -46 -11 -371 -36 -2443 -6 -514 -13 -951 -15 -970 -2 -19 -6
-144 -9 -276 -9 -346 15 -446 128 -521 68 -46 105 -55 247 -60 291 -11 431 69
469 267 6 29 6 696 0 1707 -5 912 -10 1987 -11 2388 -1 526 -5 780 -16 910
-18 227 -9 435 19 435 16 0 235 -225 307 -315 180 -224 267 -410 328 -706 17
-79 18 -224 18 -2284 l0 -2200 23 -57 c56 -138 167 -178 435 -158 127 9 150 9
176 -5 26 -13 99 -15 525 -15 341 0 497 3 501 11 7 11 371 7 382 -5 8 -8 121
-8 149 0 17 4 23 16 27 53 3 26 15 75 26 109 19 55 21 85 21 297 0 275 12 474
42 670 11 77 24 163 28 191 5 29 11 60 14 70 3 11 10 51 16 89 5 39 17 120 26
180 32 215 20 460 -32 653 -16 61 -16 64 2 89 12 16 44 33 87 48 121 40 147
87 122 219 -19 100 -21 882 -2 1456 14 443 14 752 2 946 -12 196 19 292 131
409 30 31 54 61 54 68 0 7 -10 37 -22 67 l-23 55 3 600 c1 346 7 642 13 700
13 112 38 247 85 450 24 105 33 152 44 235 6 41 13 81 16 89 10 30 25 384 34
821 11 525 30 768 78 1009 17 83 19 135 17 425 -1 182 -5 394 -10 471 -8 161
4 286 31 316 20 23 61 24 89 3 22 -17 20 34 30 -644 3 -190 8 -356 11 -370 3
-13 23 -41 45 -61 45 -41 46 -53 29 -219 -6 -52 -15 -153 -20 -225 -5 -71 -14
-186 -19 -255 -6 -69 -15 -273 -21 -455 -13 -384 -16 -367 84 -474 37 -39 69
-84 76 -107 30 -91 -20 -2633 -55 -2780 -34 -141 -1 -204 117 -229 72 -16 79
-45 58 -251 -10 -99 -23 -345 -40 -754 -5 -118 -14 -311 -20 -428 -13 -236
-10 -273 25 -308 22 -22 32 -24 119 -24 92 0 95 -1 119 -29 24 -29 25 -36 32
-238 9 -231 0 -816 -15 -1078 -18 -304 -40 -657 -50 -795 -5 -74 -12 -179 -15
-232 -3 -53 -10 -112 -15 -129 -5 -18 -11 -145 -12 -283 l-2 -251 27 -55 c14
-30 40 -70 56 -87 l30 -33 548 0 c594 0 568 -2 613 53 8 10 34 21 57 24 41 5
73 27 60 40 -11 10 -92 23 -222 35 -93 9 -162 9 -310 -2 -301 -21 -519 -24
-572 -8 -91 27 -124 100 -105 233 6 39 20 135 31 215 12 80 26 170 31 200 5
30 16 109 25 175 9 66 20 152 25 190 15 113 39 382 56 635 8 129 19 273 23
320 4 47 9 191 10 321 2 185 -1 261 -15 350 -9 63 -18 175 -18 249 -1 116 2
144 22 198 34 97 29 127 -28 166 -18 12 -48 16 -120 16 -125 1 -169 19 -194
81 -16 39 -16 56 -7 164 7 66 16 172 21 235 6 63 17 187 25 275 8 88 19 221
25 295 6 74 18 205 25 290 8 85 18 193 22 240 14 164 3 180 -149 224 -44 13
-64 25 -84 52 l-27 35 7 162 c3 89 13 299 22 467 9 174 19 635 24 1075 4 439
13 828 20 905 21 238 7 286 -101 340 -92 47 -91 44 -92 307 0 126 5 278 12
338 12 113 34 305 51 455 19 169 30 306 30 382 0 72 -2 78 -31 107 -17 17 -35
31 -40 31 -25 0 -90 53 -106 87 -21 45 -22 147 -3 403 16 210 2 335 -60 515
-67 193 -81 274 -66 382 7 44 5 54 -13 72 -26 26 -83 28 -102 4z"/>
<path d="M9068 10920 c-4 -8 -9 -87 -12 -175 -8 -212 -29 -308 -99 -445 -56
-109 -134 -218 -372 -515 -106 -132 -245 -319 -310 -415 -149 -220 -197 -281
-291 -369 -93 -87 -184 -133 -309 -156 -78 -15 -102 -15 -180 -5 -49 7 -107
18 -128 25 -20 7 -39 10 -42 6 -2 -4 44 -52 102 -106 131 -123 177 -181 199
-250 16 -51 16 -58 1 -115 -22 -77 -46 -130 -118 -255 -88 -155 -131 -241
-178 -355 -24 -58 -47 -114 -51 -125 -26 -61 -47 -132 -86 -285 -33 -128 -67
-332 -86 -510 -17 -166 -18 -945 0 -1170 25 -334 33 -428 43 -550 6 -69 13
-195 16 -280 5 -145 4 -159 -16 -197 -16 -32 -33 -48 -77 -69 -53 -26 -65 -28
-183 -28 -96 0 -139 5 -179 18 -60 21 -219 101 -243 122 -8 8 -19 14 -23 14
-4 0 -20 8 -34 19 -15 10 -56 34 -92 53 -36 20 -92 50 -125 68 -202 109 -367
220 -535 359 -143 119 -187 161 -299 287 -224 252 -384 509 -512 824 -81 201
-114 229 -294 256 -170 25 -286 13 -350 -37 -77 -61 -91 -218 -44 -489 44
-259 0 -516 -132 -769 -58 -112 -63 -120 -109 -186 -232 -334 -559 -559 -893
-616 -82 -14 -261 -16 -722 -8 -325 6 -354 8 -397 27 -102 45 -101 134 3 367
35 78 125 361 140 440 4 22 15 78 24 125 56 291 62 708 14 1035 -24 165 -66
364 -104 495 -97 336 -122 397 -180 448 -48 43 -87 42 -200 -5 l-90 -37 -230
-4 c-126 -2 -347 3 -491 11 -275 15 -370 10 -459 -21 -66 -23 -129 -84 -146
-142 -16 -54 -16 -320 0 -485 7 -70 11 -465 11 -1075 0 -738 3 -969 12 -978
13 -13 67 -16 84 -4 16 11 44 141 73 337 20 133 31 422 35 945 3 289 9 561 15
605 6 44 12 101 13 128 2 26 8 48 13 48 11 2 49 -86 77 -181 99 -330 139 -673
118 -1028 -11 -187 -32 -408 -50 -512 -5 -30 -14 -91 -20 -135 -7 -44 -18
-114 -25 -155 -7 -41 -18 -109 -25 -150 -6 -41 -18 -104 -26 -139 -20 -93 -3
-99 37 -15 178 381 259 709 275 1119 9 206 -25 605 -66 795 -6 25 -17 79 -25
120 -17 89 -42 201 -54 250 -27 106 -73 274 -92 335 -38 125 -38 123 17 130
27 3 74 10 104 15 58 10 198 32 315 49 39 6 139 18 224 27 252 27 359 9 430
-72 35 -39 77 -122 92 -178 4 -17 15 -56 24 -86 8 -30 19 -73 24 -95 62 -288
67 -317 86 -470 22 -178 20 -523 -5 -705 -22 -164 -39 -257 -69 -380 -21 -85
-83 -288 -100 -325 -5 -11 -19 -47 -31 -80 -26 -73 -35 -93 -118 -265 -36 -74
-67 -153 -70 -175 -5 -51 18 -83 73 -95 76 -18 652 -31 1230 -28 553 3 581 4
610 22 28 18 115 101 474 451 225 219 331 351 411 510 78 154 103 259 104 430
0 143 -15 229 -66 375 -48 137 -60 190 -53 230 12 72 70 100 204 100 146 0
189 -36 201 -172 9 -89 37 -177 79 -245 47 -76 208 -247 521 -552 169 -165
352 -353 406 -418 154 -183 261 -289 355 -353 216 -144 442 -213 834 -255 263
-27 380 13 431 150 24 64 25 256 1 465 -74 657 -83 1377 -26 1950 39 396 70
493 260 823 79 136 113 197 149 262 92 170 148 398 134 541 -6 58 -5 63 18 78
14 9 64 20 116 25 149 16 155 21 282 281 62 126 112 197 218 310 44 47 99 108
123 137 24 28 93 106 152 173 60 67 123 145 141 173 86 136 167 334 196 476
23 115 21 688 -2 631z"/>
<path d="M8891 9678 c-19 -5 -42 -15 -51 -21 -25 -18 -332 -362 -368 -412 -12
-16 -42 -85 -67 -152 -38 -102 -45 -134 -45 -193 0 -89 27 -138 98 -174 94
-47 260 -42 329 10 44 34 68 84 88 185 18 87 43 168 95 304 73 191 77 305 16
423 -22 42 -37 47 -95 30z m-13 -190 c19 -23 24 -87 12 -140 -35 -159 -84
-360 -98 -407 -25 -80 -45 -91 -163 -91 -87 0 -101 2 -124 23 -27 23 -36 82
-19 122 21 49 133 238 192 325 107 157 167 207 200 168z"/>
<path d="M9201 9508 c-54 -225 -68 -380 -52 -589 6 -85 16 -196 23 -247 l12
-93 87 -44 c99 -49 159 -93 159 -116 0 -23 -98 -112 -140 -128 -19 -7 -41 -16
-49 -20 -11 -5 -14 -51 -16 -221 -1 -118 -7 -368 -14 -555 -13 -389 -6 -2584
10 -2748 5 -62 16 -112 29 -136 28 -57 84 -98 148 -112 57 -11 90 -10 352 16
478 47 799 46 1198 -2 186 -22 281 -15 369 28 53 27 75 45 100 82 57 86 65
128 72 378 l6 226 29 37 c36 48 73 70 161 98 88 27 156 29 182 6 11 -10 33
-55 49 -100 26 -73 29 -96 29 -198 0 -129 -8 -158 -74 -260 -75 -115 -64 -160
53 -220 36 -18 73 -41 82 -51 22 -25 32 -24 74 5 20 13 72 39 117 57 105 44
165 86 188 135 25 50 30 156 16 293 -6 58 -18 411 -27 784 -15 640 -15 681 2
732 21 67 78 136 138 164 81 40 427 77 475 52 55 -30 74 -116 51 -231 -5 -25
-10 -340 -11 -700 -1 -360 -6 -734 -11 -830 -16 -289 15 -390 134 -451 35 -18
59 -21 149 -21 58 0 133 6 165 14 44 10 137 12 368 10 267 -2 317 0 360 14
132 44 205 141 206 274 0 30 -12 130 -27 222 l-27 167 18 223 c9 123 21 261
26 308 77 722 90 911 90 1254 0 160 -5 329 -10 376 -17 145 -23 256 -16 284 3
14 19 32 34 39 39 20 242 44 597 71 116 9 235 18 265 20 89 8 126 -19 144
-104 3 -14 1 -313 -5 -665 -5 -352 -12 -959 -15 -1350 l-5 -710 -25 -85 c-14
-47 -30 -96 -35 -110 -15 -42 -13 -107 4 -134 22 -33 47 -46 105 -53 43 -5 49
-3 61 20 8 14 11 41 8 63 -28 229 -30 255 -19 331 52 353 65 463 87 703 34
385 61 1137 67 1860 3 302 2 327 -16 356 -28 47 -52 57 -146 59 -114 3 -160
24 -230 104 -30 35 -86 97 -124 139 -135 152 -164 237 -181 537 -9 149 -33
255 -59 255 -7 0 -20 -21 -29 -47 -20 -57 -22 -169 -6 -380 11 -137 10 -147
-8 -171 -20 -27 -26 -31 -90 -57 -74 -31 -113 -82 -178 -230 -98 -227 -165
-282 -309 -258 -33 6 -67 8 -73 6 -29 -11 -29 -117 1 -248 9 -38 25 -135 37
-215 25 -184 28 -596 5 -860 -26 -288 -35 -397 -51 -566 -10 -106 -15 -284
-15 -520 -1 -610 -25 -707 -197 -776 -57 -22 -66 -23 -374 -22 -324 1 -392 8
-451 44 -78 47 -95 113 -79 308 17 221 30 424 42 652 23 463 29 559 39 640 29
255 32 305 20 380 -21 128 -65 201 -145 239 -70 33 -128 28 -352 -33 -140 -38
-172 -40 -269 -21 -136 27 -190 9 -235 -75 -15 -30 -15 -320 1 -610 5 -102 14
-378 20 -615 6 -236 15 -477 21 -535 13 -124 7 -190 -21 -230 -34 -48 -135
-68 -183 -37 -50 33 -56 109 -27 337 5 41 9 131 10 200 0 111 -3 131 -22 170
-43 84 -142 110 -346 91 -70 -7 -145 -17 -167 -23 -66 -19 -116 -58 -144 -113
l-24 -50 12 -280 c11 -250 10 -285 -4 -325 -20 -57 -49 -88 -105 -112 -66 -28
-147 -32 -320 -15 -85 9 -213 21 -285 26 -71 6 -186 16 -255 23 -69 6 -298 13
-510 13 -413 2 -423 3 -478 55 -49 47 -63 101 -63 254 0 78 5 206 11 286 16
236 19 345 26 975 7 598 -2 1029 -28 1335 -17 202 -16 457 1 500 22 54 57 85
123 111 82 33 128 84 128 142 0 50 -20 96 -84 196 -138 215 -199 404 -276 860
-12 66 -29 121 -39 121 -4 0 -13 -24 -20 -52z m5872 -1290 c13 -10 18 -38 23
-130 6 -106 5 -118 -10 -124 -10 -4 -72 -7 -139 -8 l-122 -1 -7 49 c-4 27 -4
83 0 125 l7 76 85 11 c118 16 144 16 163 2z"/>
<path d="M26830 9016 c0 -91 -121 -225 -286 -316 -136 -74 -200 -119 -260
-182 -132 -136 -187 -316 -163 -528 10 -92 17 -113 50 -172 54 -92 50 -122
-18 -134 -62 -11 -133 -36 -158 -55 -58 -47 -62 -67 -68 -389 -4 -162 -11
-466 -16 -675 -6 -209 -15 -589 -21 -845 -15 -668 -28 -791 -96 -898 -72 -112
-195 -156 -574 -202 -137 -17 -160 -21 -160 -31 0 -5 13 -9 30 -9 16 0 78 -7
137 -15 59 -8 144 -20 188 -26 44 -6 115 -17 159 -25 43 -8 115 -14 160 -14
146 0 228 63 255 197 7 38 13 249 15 608 2 303 9 618 15 700 6 83 18 245 26
360 8 116 19 269 25 340 5 72 16 231 25 355 18 259 30 342 56 386 48 80 117
83 266 14 125 -58 273 -100 354 -100 57 0 151 31 268 87 172 83 239 83 290 -1
36 -59 40 -150 45 -921 3 -412 10 -984 16 -1270 13 -568 14 -582 72 -630 35
-30 70 -31 202 -11 50 8 152 20 226 26 122 11 278 34 400 59 74 15 240 78 240
90 0 11 -416 46 -715 60 -180 9 -223 19 -264 62 -49 52 -54 80 -47 269 4 96 9
344 12 550 3 206 12 462 20 567 30 404 12 778 -61 1248 -9 55 -20 127 -25 160
-5 33 -18 112 -28 175 -11 63 -27 165 -37 225 -57 375 -91 453 -238 545 -161
102 -217 166 -266 308 -27 77 -51 105 -51 58z m42 -357 c114 -25 235 -115 286
-215 94 -185 93 -374 -6 -582 -52 -111 -168 -192 -297 -207 -33 -4 -68 -9 -77
-11 -36 -6 -185 24 -228 46 -73 38 -101 62 -142 124 -55 86 -78 172 -79 298 0
91 3 114 29 185 66 180 204 318 362 362 48 13 90 13 152 0z"/>
<path d="M8855 8191 l-30 -6 3 -745 c4 -1061 28 -1814 71 -2265 6 -55 15 -156
21 -225 18 -207 21 -230 29 -230 5 0 11 24 15 53 11 93 7 3386 -4 3408 -11 20
-45 23 -105 10z"/>
<path d="M665 3959 c-102 -7 -220 -24 -338 -49 -56 -11 -105 -43 -117 -75 -12
-33 -1 -91 21 -111 31 -28 152 -22 389 22 162 29 397 30 387 1 -11 -36 -142
-76 -332 -102 -160 -22 -185 -30 -287 -93 -94 -57 -108 -73 -108 -122 0 -63
57 -94 250 -136 191 -41 358 -75 390 -80 77 -12 76 -20 -20 -90 -90 -66 -187
-161 -217 -212 -22 -37 -25 -52 -21 -110 3 -54 12 -85 46 -157 45 -92 222
-385 246 -404 21 -18 26 9 15 84 -13 95 -32 128 -127 225 -113 114 -132 145
-132 215 0 53 3 59 47 106 35 38 72 62 143 96 196 93 221 109 245 159 40 86
-15 182 -126 217 -31 9 -67 17 -80 17 -13 0 -82 13 -153 29 -133 30 -170 50
-178 96 -3 21 24 27 322 64 52 6 167 21 255 32 88 11 196 24 240 29 113 12
146 20 181 41 61 37 80 98 49 158 -25 50 -82 73 -275 111 -224 45 -454 58
-715 39z"/>
<path d="M22738 3108 c-18 -14 -34 -51 -635 -1403 -217 -490 -418 -934 -446
-989 -65 -127 -128 -195 -226 -244 -41 -20 -83 -49 -94 -64 -24 -33 -17 -71
18 -94 22 -14 36 -15 132 -3 135 17 429 17 636 0 139 -12 160 -11 181 2 24 16
35 47 28 80 -5 25 -64 52 -166 76 -94 23 -171 58 -207 97 -31 33 -48 107 -37
163 12 65 147 436 172 474 12 18 39 41 61 52 38 19 63 20 428 23 426 3 477 -1
520 -46 29 -30 77 -130 157 -327 42 -102 54 -145 57 -200 8 -117 -24 -157
-197 -255 -70 -39 -84 -58 -75 -101 10 -45 31 -51 152 -40 242 22 452 24 721
6 299 -20 297 -21 297 55 0 63 -31 87 -177 140 -66 24 -122 75 -160 145 -14
28 -249 571 -522 1207 -273 637 -505 1176 -516 1198 -28 56 -68 74 -102 48z
m14 -565 c8 -10 66 -139 128 -288 140 -337 251 -600 346 -822 248 -582 269
-655 228 -794 -12 -42 -28 -66 -71 -107 -30 -30 -57 -51 -60 -48 -4 3 3 16 15
29 36 38 52 91 52 169 0 40 -5 92 -10 114 -8 36 -596 1457 -671 1623 -33 72
-36 103 -13 125 20 21 37 20 56 -1z m-99 -190 c23 -26 328 -759 334 -803 10
-69 5 -70 -367 -70 -375 0 -376 0 -368 74 6 44 310 770 336 799 8 9 23 17 32
17 9 0 24 -8 33 -17z m-858 -1615 c-13 -149 -54 -233 -138 -282 -39 -23 -136
-50 -145 -41 -2 2 30 37 71 77 65 65 82 89 138 205 35 72 68 129 73 126 4 -3
5 -41 1 -85z"/>
<path d="M7955 3104 c-327 -31 -573 -139 -795 -348 -293 -276 -452 -615 -491
-1047 -41 -457 91 -856 372 -1125 205 -196 436 -294 764 -324 257 -24 577 34
914 167 177 69 412 185 448 221 l31 32 4 287 c5 310 8 331 63 415 21 32 35 41
97 59 112 33 147 80 97 130 -21 21 -26 22 -153 13 -169 -12 -615 -12 -824 0
-150 8 -164 8 -182 -9 -29 -26 -27 -78 5 -103 14 -11 78 -33 142 -49 233 -56
283 -121 283 -370 0 -225 -32 -348 -111 -425 -57 -56 -182 -119 -295 -149
-113 -30 -295 -37 -405 -15 -362 72 -623 403 -722 916 -19 101 -22 148 -22
390 0 264 1 280 27 387 100 419 342 687 686 758 91 19 271 22 359 6 184 -34
409 -149 547 -279 116 -110 223 -285 268 -440 24 -80 55 -122 91 -122 47 0 51
18 39 163 -15 169 -15 389 0 533 18 174 -10 206 -104 118 -44 -41 -54 -46 -83
-41 -18 3 -129 44 -247 90 -227 91 -312 118 -448 141 -90 15 -287 26 -355 20z
m891 -305 c93 -44 183 -134 211 -209 12 -31 27 -84 34 -119 18 -95 1 -96 -53
-4 -77 131 -194 256 -330 353 -26 18 -45 36 -42 41 6 10 90 -19 180 -62z
m-1575 -86 c-202 -215 -348 -496 -413 -797 -30 -138 -33 -495 -5 -623 97 -441
358 -746 787 -919 66 -27 120 -53 120 -57 0 -27 -251 52 -381 119 -324 168
-533 444 -614 814 -22 102 -31 390 -16 517 42 347 184 651 410 881 90 92 190
176 199 168 2 -3 -37 -49 -87 -103z m1494 -1307 c105 -68 140 -168 132 -381
-5 -154 -20 -217 -68 -296 -30 -48 -85 -97 -96 -85 -3 3 6 32 20 64 88 195 71
583 -30 690 -18 19 -33 36 -33 38 0 11 27 0 75 -30z"/>
<path d="M10985 3100 c-204 -17 -392 -69 -563 -156 -330 -168 -590 -468 -706
-814 -118 -357 -88 -817 75 -1142 82 -163 253 -365 404 -476 149 -110 367
-202 565 -239 133 -25 455 -24 593 1 241 44 461 137 638 271 99 75 248 231
317 333 165 241 242 507 242 830 0 321 -67 557 -225 791 -78 117 -152 200
-253 285 -230 191 -471 287 -793 316 -125 11 -160 11 -294 0z m448 -172 c167
-64 297 -150 419 -276 176 -183 288 -401 349 -682 26 -121 37 -440 20 -586
-43 -365 -213 -681 -450 -836 -85 -55 -114 -55 -44 1 103 81 209 214 270 336
152 305 171 808 46 1225 -68 227 -193 446 -340 595 -85 86 -225 182 -315 218
-32 12 -58 25 -58 29 0 13 18 9 103 -24z m-152 -36 c93 -28 151 -55 227 -106
136 -90 288 -269 374 -440 70 -139 132 -352 159 -546 20 -138 17 -472 -4 -585
-74 -403 -306 -671 -655 -757 -123 -30 -342 -30 -457 1 -270 72 -466 247 -615
549 -93 188 -141 391 -162 676 -32 439 66 779 286 1001 116 117 236 182 406
220 96 21 353 14 441 -13z m-1101 -210 c-170 -188 -277 -408 -332 -684 -29
-149 -32 -442 -5 -588 78 -420 319 -743 741 -994 59 -35 103 -67 97 -70 -12
-8 -142 43 -245 97 -219 114 -433 320 -552 533 -223 399 -225 919 -4 1341 73
141 136 228 244 340 108 112 153 133 56 25z"/>
<path d="M3526 3039 c-27 -21 -34 -56 -16 -89 12 -22 68 -43 173 -66 92 -19
162 -62 188 -114 34 -65 39 -164 39 -776 0 -594 5 -715 36 -903 77 -463 301
-713 714 -796 41 -9 145 -18 230 -22 657 -26 1059 259 1199 851 47 198 53 288
61 951 6 561 9 636 25 685 22 70 72 119 152 148 33 12 68 31 78 42 17 19 23
69 10 89 -12 21 -79 23 -203 7 -163 -21 -285 -20 -498 1 -143 14 -176 15 -202
4 -32 -14 -47 -42 -40 -77 5 -27 64 -62 116 -69 26 -4 83 -15 127 -26 67 -16
86 -26 122 -61 93 -91 104 -155 110 -673 6 -443 -7 -801 -33 -953 -62 -363
-256 -584 -583 -664 -120 -30 -314 -29 -424 0 -254 69 -439 269 -501 542 -26
115 -36 333 -36 840 1 480 9 722 30 817 21 97 62 134 203 189 71 27 90 48 85
92 -6 55 -49 60 -303 37 -202 -19 -418 -19 -610 0 -198 19 -217 19 -249 -6z
m2341 -92 c103 -22 159 -77 164 -162 5 -71 -2 -205 -10 -205 -4 0 -13 30 -19
67 -22 134 -88 227 -194 275 -83 37 -55 49 59 25z m-1891 -122 c96 -96 103
-158 104 -876 0 -289 5 -584 10 -655 22 -276 67 -460 138 -570 78 -120 224
-234 397 -309 128 -55 109 -62 -42 -14 -315 100 -469 261 -533 559 -48 217
-52 283 -60 1005 -5 420 -12 709 -19 738 -14 65 -43 128 -70 151 -27 25 -27
36 1 28 13 -3 46 -29 74 -57z"/>
<path d="M12701 3034 c-23 -19 -31 -34 -31 -59 0 -47 32 -69 129 -88 181 -36
264 -116 290 -277 15 -93 15 -1821 0 -1892 -14 -67 -49 -135 -86 -170 -15 -14
-64 -45 -108 -68 -44 -22 -90 -52 -102 -66 -32 -35 -30 -79 3 -101 24 -15 40
-15 182 -5 312 24 485 26 717 7 454 -36 734 4 1018 146 167 84 271 160 412
304 203 206 336 466 391 768 25 131 25 429 1 552 -48 241 -139 418 -297 575
-201 201 -471 321 -842 375 -174 26 -425 29 -718 11 -342 -22 -602 -23 -744
-2 -152 22 -178 21 -215 -10z m1734 -125 c376 -119 681 -498 760 -944 23 -130
30 -331 16 -460 -33 -311 -129 -534 -312 -723 -73 -75 -213 -182 -237 -182
-13 1 -11 5 8 21 169 136 301 328 369 538 58 176 66 235 66 491 -1 204 -4 248
-23 336 -42 194 -104 347 -198 492 -121 186 -254 305 -447 397 -59 28 -105 54
-101 57 3 4 11 5 17 3 7 -2 44 -13 82 -26z m-1362 -39 c64 -30 123 -94 147
-157 38 -102 42 -211 37 -1084 -4 -709 -7 -845 -20 -906 -20 -89 -45 -138 -94
-184 -75 -70 -131 -91 -80 -30 39 47 76 129 92 209 13 63 15 204 13 1015 -3
895 -4 944 -22 991 -18 47 -76 115 -126 148 -37 25 -1 23 53 -2z m1026 10
c290 -38 522 -174 702 -412 209 -279 291 -679 224 -1096 -60 -370 -286 -677
-593 -806 -129 -54 -222 -70 -407 -71 -187 0 -220 6 -304 57 -68 41 -103 101
-128 218 -17 79 -18 154 -18 990 0 835 1 909 18 962 30 98 80 137 202 157 70
12 216 12 304 1z"/>
<path d="M15690 3047 c-20 -10 -26 -21 -28 -54 -3 -36 1 -44 26 -62 17 -11 63
-28 103 -36 143 -30 192 -55 234 -118 35 -54 37 -105 45 -827 6 -680 8 -721
29 -838 51 -283 129 -458 262 -591 133 -133 310 -209 564 -242 127 -17 393 -6
519 21 416 88 674 343 791 781 53 201 56 241 65 914 8 629 15 745 46 808 22
44 46 62 140 107 45 21 84 45 87 55 14 35 7 65 -19 82 -25 16 -35 16 -183 0
-195 -22 -291 -22 -509 0 -155 15 -176 16 -200 2 -20 -11 -28 -24 -30 -50 -5
-57 25 -76 166 -104 141 -28 167 -40 215 -96 84 -97 90 -163 84 -896 -5 -620
-8 -663 -51 -833 -30 -115 -97 -239 -176 -323 -106 -114 -228 -183 -396 -223
-102 -25 -306 -23 -405 4 -196 53 -346 173 -438 351 -89 172 -93 207 -98 939
-7 989 -1 1019 215 1093 91 31 127 83 86 123 -27 28 -65 30 -269 13 -245 -21
-420 -22 -630 -2 -194 18 -213 18 -245 2z m2372 -108 c47 -12 97 -54 114 -96
19 -44 20 -267 2 -261 -7 3 -16 29 -20 59 -18 139 -75 223 -190 279 -32 15
-54 30 -50 34 7 8 87 0 144 -15z m-1966 -81 c132 -89 143 -169 144 -988 0
-719 22 -912 128 -1115 75 -142 250 -278 471 -365 57 -23 17 -23 -66 0 -43 12
-130 46 -193 77 -96 48 -127 69 -191 132 -203 202 -249 484 -249 1546 0 283
-4 507 -11 545 -11 72 -37 131 -77 173 -35 36 -15 34 44 -5z"/>
<path d="M18737 3040 c-23 -18 -28 -29 -25 -58 4 -45 47 -78 116 -88 191 -28
288 -115 312 -281 6 -40 10 -424 10 -943 0 -750 -2 -884 -16 -940 -27 -117
-81 -183 -197 -241 -88 -44 -117 -74 -117 -121 0 -29 6 -41 25 -54 28 -18 55
-18 370 6 123 9 196 9 399 -4 435 -28 740 -20 919 24 325 80 558 340 608 679
46 320 -92 615 -348 744 -61 32 -184 67 -233 68 -32 0 -27 4 58 47 211 105
304 226 332 430 18 133 -11 289 -74 397 -90 152 -288 279 -511 327 -139 29
-322 33 -730 13 -373 -18 -440 -17 -795 11 -67 6 -78 4 -103 -16z m1551 -131
c116 -39 221 -123 293 -233 62 -95 81 -156 87 -281 5 -122 -6 -193 -42 -270
-27 -59 -103 -158 -115 -150 -5 3 9 40 31 82 34 69 40 89 45 168 6 101 -14
238 -47 328 -47 125 -154 252 -269 317 -33 19 -61 41 -61 48 0 16 6 16 78 -9z
m-1158 -19 c81 -41 135 -114 161 -220 20 -80 21 -1809 0 -1920 -16 -93 -43
-155 -84 -198 -28 -29 -95 -72 -112 -72 -3 0 8 20 25 45 45 65 77 141 90 210
16 82 26 1675 12 1840 -13 145 -38 217 -100 286 -24 27 -41 49 -38 49 4 0 24
-9 46 -20z m951 -21 c198 -54 356 -220 404 -422 17 -74 20 -245 4 -319 -44
-208 -207 -291 -539 -273 -230 12 -287 30 -316 101 -18 43 -20 684 -3 766 20
97 70 149 161 168 62 13 203 3 289 -21z m99 -1209 c131 -32 222 -82 311 -170
125 -123 178 -274 166 -470 -11 -166 -58 -278 -160 -380 -131 -131 -339 -189
-577 -161 -178 21 -253 79 -286 220 -17 71 -20 815 -3 873 26 97 91 120 319
113 101 -3 171 -10 230 -25z m259 -5 c167 -59 292 -163 357 -299 45 -94 57
-160 52 -291 -5 -123 -31 -213 -90 -313 -47 -80 -170 -200 -246 -241 -71 -37
-96 -33 -42 7 62 46 155 146 184 197 59 104 78 179 83 325 6 157 -6 220 -65
340 -45 93 -149 200 -239 248 -84 44 -81 58 6 27z"/>
<path d="M24288 3040 c-21 -16 -28 -30 -28 -55 0 -56 31 -76 147 -96 132 -23
218 -72 258 -149 32 -61 35 -159 35 -1056 0 -863 -1 -904 -20 -978 -20 -79
-62 -152 -102 -178 -13 -8 -53 -27 -90 -42 -83 -35 -121 -73 -120 -118 0 -21
9 -39 24 -52 26 -20 55 -20 396 5 137 10 214 10 370 0 421 -26 414 -26 445 -1
27 21 35 58 21 95 -9 24 -70 51 -165 74 -177 44 -242 102 -274 244 -14 64 -15
178 -13 1002 3 866 5 934 21 984 26 75 92 139 182 175 39 15 80 37 93 49 28
26 29 70 1 98 -19 19 -29 21 -88 16 -36 -3 -196 -12 -354 -18 -287 -13 -316
-12 -647 17 -57 5 -68 3 -92 -16z m394 -151 c79 -40 133 -114 159 -219 20 -78
21 -1820 1 -1925 -17 -90 -49 -160 -96 -208 -37 -37 -116 -85 -116 -70 0 5 15
27 33 50 43 54 83 143 98 218 16 82 25 1729 10 1864 -6 53 -18 117 -26 142
-19 54 -74 123 -116 145 -16 8 -29 19 -29 25 0 12 29 4 82 -22z"/>
</g>
</svg>
