<?xml version="1.0" standalone="no"?><!DOCTYPE svg PUBLIC "-//W3C//DTD SVG 1.1//EN" "http://www.w3.org/Graphics/SVG/1.1/DTD/svg11.dtd"><svg t="1563107106172" class="icon" viewBox="0 0 1024 1024" version="1.1" xmlns="http://www.w3.org/2000/svg" p-id="23198" xmlns:xlink="http://www.w3.org/1999/xlink" width="128" height="128"><defs><style type="text/css"></style></defs><path d="M697.6 179.712m0 38.4l0 153.6q0 38.4-38.4 38.4l-102.4 0q-38.4 0-38.4-38.4l0-153.6q0-38.4 38.4-38.4l102.4 0q38.4 0 38.4 38.4Z" fill="#453F3C" p-id="23199"></path><path d="M544 205.312m12.8 0l102.4 0q12.8 0 12.8 12.8l0 153.6q0 12.8-12.8 12.8l-102.4 0q-12.8 0-12.8-12.8l0-153.6q0-12.8 12.8-12.8Z" fill="#EAC363" p-id="23200"></path><path d="M576 262.912h-6.4l6.4-12.8h6.4l-6.4 12.8zM627.2 243.712h-6.4l6.4-12.8h6.4l-6.4 12.8zM614.4 282.112h6.4l-6.4-12.8h-6.4l6.4 12.8zM576 224.512h6.4l-6.4-12.8h-6.4l6.4 12.8zM659.2 275.712h-6.4l6.4-12.8h6.4l-6.4 12.8z" fill="#453F3C" p-id="23201"></path><path d="M723.2 205.312H620.8a53.248 53.248 0 0 0-51.2 38.4H505.6a51.2 51.2 0 0 0-51.2 51.2v153.6a51.2 51.2 0 0 0 51.2 51.2h102.4a51.2 51.2 0 0 0 49.536-38.4H723.2a51.2 51.2 0 0 0 51.2-51.2v-153.6a51.2 51.2 0 0 0-51.2-51.2z" opacity=".14" p-id="23202"></path><path d="M556.8 243.712v-19.2a6.4 6.4 0 0 1 6.4-6.4h22.912a54.336 54.336 0 0 1 34.688-12.8H556.8a12.8 12.8 0 0 0-12.8 12.8v25.6z" fill="#FFFFFF" opacity=".24" p-id="23203"></path><path d="M761.6 218.112m0 38.4l0 153.6q0 38.4-38.4 38.4l-102.4 0q-38.4 0-38.4-38.4l0-153.6q0-38.4 38.4-38.4l102.4 0q38.4 0 38.4 38.4Z" fill="#453F3C" p-id="23204"></path><path d="M608 243.712m12.8 0l102.4 0q12.8 0 12.8 12.8l0 153.6q0 12.8-12.8 12.8l-102.4 0q-12.8 0-12.8-12.8l0-153.6q0-12.8 12.8-12.8Z" fill="#EAC363" p-id="23205"></path><path d="M659.2 294.912h76.8v12.8h-76.8z" opacity=".14" p-id="23206"></path><path d="M678.4 256.512h12.8v38.4h-12.8zM704 256.512h6.4v38.4h-6.4z" fill="#FFFFFF" opacity=".24" p-id="23207"></path><path d="M640 301.312h-6.4l6.4-12.8h6.4l-6.4 12.8zM691.2 282.112h-6.4l6.4-12.8h6.4l-6.4 12.8zM678.4 320.512h6.4l-6.4-12.8h-6.4l6.4 12.8zM640 262.912h6.4l-6.4-12.8h-6.4l6.4 12.8zM723.2 314.112h-6.4l6.4-12.8h6.4l-6.4 12.8z" fill="#453F3C" p-id="23208"></path><path d="M659.2 243.712m0 51.2l0 153.6q0 51.2-51.2 51.2l-102.4 0q-51.2 0-51.2-51.2l0-153.6q0-51.2 51.2-51.2l102.4 0q51.2 0 51.2 51.2Z" opacity=".14" p-id="23209"></path><path d="M723.2 243.712H608a46.528 46.528 0 0 1 32 12.8h76.8a6.4 6.4 0 0 1 6.4 6.4v32h12.8v-38.4a12.8 12.8 0 0 0-12.8-12.8z" fill="#FFFFFF" opacity=".24" p-id="23210"></path><path d="M544 154.112m0 38.4l0 153.6q0 38.4-38.4 38.4l-102.4 0q-38.4 0-38.4-38.4l0-153.6q0-38.4 38.4-38.4l102.4 0q38.4 0 38.4 38.4Z" fill="#453F3C" p-id="23211"></path><path d="M390.4 179.712m12.8 0l102.4 0q12.8 0 12.8 12.8l0 153.6q0 12.8-12.8 12.8l-102.4 0q-12.8 0-12.8-12.8l0-153.6q0-12.8 12.8-12.8Z" fill="#EAC363" p-id="23212"></path><path d="M422.4 237.312h-6.4l6.4-12.8h6.4l-6.4 12.8zM473.6 218.112h-6.4l6.4-12.8h6.4l-6.4 12.8zM460.8 256.512h6.4l-6.4-12.8h-6.4l6.4 12.8zM422.4 198.912h6.4l-6.4-12.8h-6.4l6.4 12.8zM505.6 250.112h-6.4l6.4-12.8h6.4l-6.4 12.8zM486.4 294.912h6.4l-6.4-12.8h-6.4l6.4 12.8zM448 288.512h-6.4l6.4-12.8h6.4l-6.4 12.8z" fill="#453F3C" p-id="23213"></path><path d="M505.6 179.712H403.2a12.8 12.8 0 0 0-12.8 12.8v153.6a12.8 12.8 0 0 0 12.8 12.8h102.4a12.8 12.8 0 0 0 12.8-12.8v-153.6a12.8 12.8 0 0 0-12.8-12.8z m0 160a6.4 6.4 0 0 1-6.4 6.4H409.6a6.4 6.4 0 0 1-6.4-6.4v-140.8a6.4 6.4 0 0 1 6.4-6.4h89.6a6.4 6.4 0 0 1 6.4 6.4z" fill="#FFFFFF" opacity=".24" p-id="23214"></path><path d="M454.4 192.512m0 51.2l0 153.6q0 51.2-51.2 51.2l-102.4 0q-51.2 0-51.2-51.2l0-153.6q0-51.2 51.2-51.2l102.4 0q51.2 0 51.2 51.2Z" opacity=".14" p-id="23215"></path><path d="M659.2 243.712m0 51.2l0 153.6q0 51.2-51.2 51.2l-102.4 0q-51.2 0-51.2-51.2l0-153.6q0-51.2 51.2-51.2l102.4 0q51.2 0 51.2 51.2Z" opacity=".14" p-id="23216"></path><path d="M441.6 205.312m0 38.4l0 153.6q0 38.4-38.4 38.4l-102.4 0q-38.4 0-38.4-38.4l0-153.6q0-38.4 38.4-38.4l102.4 0q38.4 0 38.4 38.4Z" fill="#453F3C" p-id="23217"></path><path d="M288 230.912m12.8 0l102.4 0q12.8 0 12.8 12.8l0 153.6q0 12.8-12.8 12.8l-102.4 0q-12.8 0-12.8-12.8l0-153.6q0-12.8 12.8-12.8Z" fill="#EAC363" p-id="23218"></path><path d="M403.2 230.912H300.8a12.8 12.8 0 0 0-12.8 12.8v153.6a12.8 12.8 0 0 0 12.8 12.8h102.4a12.8 12.8 0 0 0 12.8-12.8v-153.6a12.8 12.8 0 0 0-12.8-12.8z m0 160a6.4 6.4 0 0 1-6.4 6.4H307.2a6.4 6.4 0 0 1-6.4-6.4v-140.8a6.4 6.4 0 0 1 6.4-6.4h89.6a6.4 6.4 0 0 1 6.4 6.4z" fill="#FFFFFF" opacity=".24" p-id="23219"></path><path d="M288 294.912h128v12.8H288z" opacity=".14" p-id="23220"></path><path d="M358.4 243.712h12.8v51.2h-12.8zM384 243.712h6.4v51.2h-6.4z" fill="#FFFFFF" opacity=".24" p-id="23221"></path><path d="M320 288.512h-6.4l6.4-12.8h6.4l-6.4 12.8zM371.2 269.312h-6.4l6.4-12.8h6.4l-6.4 12.8zM358.4 307.712h6.4l-6.4-12.8h-6.4l6.4 12.8zM320 250.112h6.4l-6.4-12.8h-6.4l6.4 12.8zM403.2 301.312h-6.4l6.4-12.8h6.4l-6.4 12.8z" fill="#453F3C" p-id="23222"></path><path d="M646.4 256.512m0 38.4l0 153.6q0 38.4-38.4 38.4l-102.4 0q-38.4 0-38.4-38.4l0-153.6q0-38.4 38.4-38.4l102.4 0q38.4 0 38.4 38.4Z" fill="#453F3C" p-id="23223"></path><path d="M492.8 282.112m12.8 0l102.4 0q12.8 0 12.8 12.8l0 153.6q0 12.8-12.8 12.8l-102.4 0q-12.8 0-12.8-12.8l0-153.6q0-12.8 12.8-12.8Z" fill="#EAC363" p-id="23224"></path><path d="M608 282.112H505.6a12.8 12.8 0 0 0-12.8 12.8v153.6a12.8 12.8 0 0 0 12.8 12.8h102.4a12.8 12.8 0 0 0 12.8-12.8v-153.6a12.8 12.8 0 0 0-12.8-12.8z m0 160a6.4 6.4 0 0 1-6.4 6.4H512a6.4 6.4 0 0 1-6.4-6.4v-140.8a6.4 6.4 0 0 1 6.4-6.4h89.6a6.4 6.4 0 0 1 6.4 6.4z" fill="#FFFFFF" opacity=".24" p-id="23225"></path><path d="M492.8 294.912h128v12.8H492.8z" opacity=".14" p-id="23226"></path><path d="M595.2 339.712h6.4l-6.4-12.8h-6.4l6.4 12.8zM544 307.712h6.4l-6.4-12.8h-6.4l6.4 12.8zM556.8 358.912h-6.4l6.4-12.8h6.4l-6.4 12.8zM595.2 301.312h-6.4l6.4-12.8h6.4l-6.4 12.8zM512 352.512h6.4l-6.4-12.8h-6.4l6.4 12.8zM300.8 973.312a51.904 51.904 0 0 1-51.2-51.2l-25.6-563.2h576l-25.6 563.2a51.904 51.904 0 0 1-51.2 51.2z" fill="#453F3C" p-id="23227"></path><path d="M774.4 384.512l-25.6 537.6a25.6 25.6 0 0 1-25.6 25.6H300.8a25.6 25.6 0 0 1-25.6-25.6l-25.6-537.6z" fill="#d81e06" p-id="23228" data-spm-anchor-id="a313x.7781069.0.i57" class="selected"></path><path d="M748.032 666.112l-12.032 249.6a19.2 19.2 0 0 1-19.2 19.2H307.2a19.2 19.2 0 0 1-19.2-19.2l-12.032-249.6h-12.8l12.16 256a25.6 25.6 0 0 0 25.6 25.6h422.4a25.6 25.6 0 0 0 25.6-25.6l12.16-256z" opacity=".14" p-id="23229"></path><path d="M761.024 666.112l13.376-281.6h-12.8l-13.568 281.6h12.992zM275.968 666.112l-13.568-281.6h-12.8l13.376 281.6h12.992z" fill="#FFFFFF" opacity=".24" p-id="23230"></path><path d="M678.4 410.112h12.8v524.8h-12.8zM704 410.112h6.4v524.8h-6.4z" fill="#FFFFFF" opacity=".24" p-id="23231"></path><path d="M819.2 582.912v166.4H204.8v-166.4z" fill="#453F3C" p-id="23232"></path><path d="M230.4 608.512h563.2v115.2H230.4z" fill="#B8574C" p-id="23233"></path><path d="M230.4 608.512h563.2v12.8H230.4z" fill="#FFFFFF" opacity=".24" p-id="23234"></path><path d="M230.4 710.912h563.2v12.8H230.4z" opacity=".14" p-id="23235"></path><path d="M678.4 621.312h12.8v89.6h-12.8zM704 621.312h6.4v89.6h-6.4z" fill="#FFFFFF" opacity=".24" p-id="23236"></path><path d="M358.4 666.112a179.2 153.6 90 1 0 307.2 0 179.2 153.6 90 1 0-307.2 0Z" fill="#453F3C" p-id="23237"></path><path d="M384 666.112a153.6 128 90 1 0 256 0 153.6 128 90 1 0-256 0Z" fill="#F7F7F7" p-id="23238"></path><path d="M512 806.912c-63.616 0-115.2-63.04-115.2-140.8h-12.8c0 84.864 57.6 153.6 128 153.6s128-68.736 128-153.6h-12.8c0 77.76-51.584 140.8-115.2 140.8z" opacity=".14" p-id="23239"></path><path d="M512 525.312c63.616 0 115.2 63.04 115.2 140.8h12.8c0-84.8-57.6-153.6-128-153.6s-128 68.8-128 153.6h12.8c0-77.76 51.584-140.8 115.2-140.8z" fill="#FFFFFF" opacity=".8" p-id="23240"></path><path d="M224 384.512h576v25.6H224z" opacity=".14" p-id="23241"></path><path d="M582.4 576.512m0 38.4l0 102.4q0 38.4-38.4 38.4l-64 0q-38.4 0-38.4-38.4l0-102.4q0-38.4 38.4-38.4l64 0q38.4 0 38.4 38.4Z" fill="#453F3C" p-id="23242"></path><path d="M467.2 602.112m12.8 0l64 0q12.8 0 12.8 12.8l0 102.4q0 12.8-12.8 12.8l-64 0q-12.8 0-12.8-12.8l0-102.4q0-12.8 12.8-12.8Z" fill="#EAC363" p-id="23243"></path><path d="M499.2 614.912h12.8v102.4h-12.8zM524.8 614.912h6.4v102.4h-6.4z" fill="#FFFFFF" opacity=".24" p-id="23244"></path><path d="M486.4 659.712h-6.4l6.4-12.8h6.4l-6.4 12.8zM524.8 640.512h-6.4l6.4-12.8h6.4l-6.4 12.8zM480 698.112h-6.4l6.4-12.8h6.4l-6.4 12.8zM512 691.712h6.4l-6.4-12.8h-6.4l6.4 12.8zM537.6 717.312h6.4l-6.4-12.8h-6.4l6.4 12.8zM486.4 621.312h6.4l-6.4-12.8h-6.4l6.4 12.8zM544 672.512h-6.4l6.4-12.8h6.4l-6.4 12.8z" fill="#453F3C" p-id="23245"></path><path d="M480 666.112v-44.8a6.4 6.4 0 0 1 6.4-6.4h51.2a6.4 6.4 0 0 1 6.4 6.4v44.8h12.8v-51.2a12.8 12.8 0 0 0-12.8-12.8H480a12.8 12.8 0 0 0-12.8 12.8v51.2z" fill="#FFFFFF" opacity=".24" p-id="23246"></path><path d="M544 666.112v44.8a6.4 6.4 0 0 1-6.4 6.4h-51.2a6.4 6.4 0 0 1-6.4-6.4v-44.8h-12.8v51.2a12.8 12.8 0 0 0 12.8 12.8h64a12.8 12.8 0 0 0 12.8-12.8v-51.2z" opacity=".14" p-id="23247"></path><path d="M448 781.312a64 12.8 0 1 0 128 0 64 12.8 0 1 0-128 0Z" opacity=".14" p-id="23248"></path><path d="M256 621.312h115.2v6.4H256zM256 640.512h115.2v12.8H256zM256 704.512h115.2v6.4H256zM256 678.912h115.2v12.8H256zM652.8 621.312h115.2v6.4h-115.2zM652.8 640.512h115.2v12.8h-115.2zM652.8 704.512h115.2v6.4h-115.2zM652.8 678.912h115.2v12.8h-115.2z" fill="#453F3C" p-id="23249"></path><path d="M230.4 384.512a38.4 38.4 0 0 1 0-76.8h563.2a38.4 38.4 0 0 1 0 76.8z" fill="#453F3C" p-id="23250"></path><path d="M217.6 333.312m12.8 0l563.2 0q12.8 0 12.8 12.8l0 0q0 12.8-12.8 12.8l-563.2 0q-12.8 0-12.8-12.8l0 0q0-12.8 12.8-12.8Z" fill="#CCC4C4" p-id="23251"></path><path d="M211.2 320.512h601.6v25.6H211.2z" fill="#FFFFFF" opacity=".4" p-id="23252"></path><path d="M620.8 346.112h12.8v12.8h-12.8zM646.4 346.112h6.4v12.8h-6.4z" fill="#FFFFFF" opacity=".4" p-id="23253"></path></svg>