<?xml version="1.0" standalone="no"?><!DOCTYPE svg PUBLIC "-//W3C//DTD SVG 1.1//EN" "http://www.w3.org/Graphics/SVG/1.1/DTD/svg11.dtd"><svg t="1563106819306" class="icon" viewBox="0 0 1024 1024" version="1.1" xmlns="http://www.w3.org/2000/svg" p-id="10761" width="128" height="128" xmlns:xlink="http://www.w3.org/1999/xlink"><defs><style type="text/css"></style></defs><path d="M403.242 81.064C377.314 31.054 326.248 0 270 0 187.294 0 120 67.294 120 150s67.294 150 150 150h120l84.852-110.274c-26.456-29.766-48.964-64.98-71.61-108.662z" fill="#32D736" p-id="10762"></path><path d="M450 240c-62.52 0-116.7-30.49-153.164-103.418-7.442-14.794-25.4-20.8-40.254-13.418-14.824 7.412-20.83 25.43-13.418 40.254C290.526 258.142 366.152 300 450 300c16.582 0 32-13.418 32-30s-15.418-30-32-30zM754 0c-56.252 0-107.314 31.054-133.242 81.064-22.646 43.682-45.154 78.896-71.61 108.662L634 300h120c82.706 0 150-67.294 150-150S836.706 0 754 0z" fill="#10BB67" p-id="10763"></path><path d="M512 120c-49.802 0-92 40.198-92 90 0 49.798 42.198 90 92 90s92-40.202 92-90c0-49.802-42.198-90-92-90z" fill="#10BB67" p-id="10764"></path><path d="M767.418 123.164c-14.766-7.382-32.812-1.376-40.254 13.418C690.93 209.052 637.028 240 574 240c-16.582 0-32 13.418-32 30s15.418 30 32 30c84.378 0 159.686-42.282 206.836-136.582 7.412-14.824 1.406-32.842-13.418-40.254z" fill="#0CA656" p-id="10765"></path><path d="M604 210c0 49.798-42.198 90-92 90V120c49.802 0 92 40.198 92 90z" fill="#0CA656" p-id="10766"></path><path d="M964 420v514c0 49.798-40.198 90-90 90H150c-49.802 0-90-40.202-90-90V420h904z" fill="#E50027" p-id="10767"></path><path d="M512 1024h362c49.804 0 90-40.202 90-90V420H512v604z" fill="#C1001F" p-id="10768"></path><path d="M1024 330v60c0 49.798-40.198 90-90 90H90c-49.802 0-90-40.202-90-90v-60c0-49.802 40.198-90 90-90h844c49.802 0 90 40.198 90 90z" fill="#FD003A" p-id="10769"></path><path d="M1024 330v60c0 49.798-40.198 90-90 90H512V240h422c49.802 0 90 40.198 90 90z" fill="#E50027" p-id="10770"></path><path d="M360 240h304v784H360z" fill="#FEDB41" p-id="10771"></path><path d="M512 240h152v784h-152z" fill="#FFCC33" p-id="10772"></path><path d="M542 240v90c0 16.798-13.198 30-30 30s-30-13.202-30-30v-90h60z" fill="#FEA832" p-id="10773"></path><path d="M542 240v90c0 16.798-13.198 30-30 30v-120h30z" fill="#FE9923" p-id="10774"></path><path d="M542 934v90h-60v-90c0-16.802 13.198-30 30-30s30 13.198 30 30z" fill="#FEA832" p-id="10775"></path><path d="M542 934v90h-30v-120c16.802 0 30 13.198 30 30z" fill="#FE9923" p-id="10776"></path></svg>