<?xml version="1.0" standalone="no"?><!DOCTYPE svg PUBLIC "-//W3C//DTD SVG 1.1//EN" "http://www.w3.org/Graphics/SVG/1.1/DTD/svg11.dtd"><svg class="icon" width="200px" height="128.72px" viewBox="0 0 1591 1024" version="1.1" xmlns="http://www.w3.org/2000/svg"><path d="M1522.996434 1013.056771H68.521639A62.352964 62.352964 0 0 1 6.168675 950.703807V712.321542a62.352964 62.352964 0 0 1 62.352964-62.340626c77.774651 0 141.065253-63.290602 141.065253-141.065253 0-77.774651-63.290602-141.052916-141.065253-141.052916A62.352964 62.352964 0 0 1 6.168675 305.509783V67.115181A62.352964 62.352964 0 0 1 68.521639 4.774554h1454.474795a62.352964 62.352964 0 0 1 62.352964 62.352964v238.542651a62.352964 62.352964 0 0 1-60.428338 62.315951c-180.766843 5.588819-181.186313 276.270265 0 281.859085a62.352964 62.352964 0 0 1 60.428338 62.328289v238.530313a62.352964 62.352964 0 0 1-62.352964 62.352964z" fill="#F2C500" /><path d="M1524.92106 367.98612a62.352964 62.352964 0 0 0 60.428338-62.315951V67.115181a62.352964 62.352964 0 0 0-62.352964-62.352964H632.832v1008.282217h890.164434a62.352964 62.352964 0 0 0 62.352964-62.352964V712.173494a62.352964 62.352964 0 0 0-60.428338-62.328289c-180.766843-5.576482-181.186313-276.257928 0-281.859085z" fill="#F59D00" /><path d="M508.13841 4.774554h124.705927v1008.26988H508.13841z" fill="#E87E04" /><path d="M1208.307663 456.802699h-388.74988a62.352964 62.352964 0 0 1 0-124.705928h388.74988a62.352964 62.352964 0 0 1 0 124.705928zM1208.307663 685.734554h-388.74988a62.352964 62.352964 0 0 1 0-124.705927h388.74988a62.352964 62.352964 0 0 1 0 124.705927z" fill="#808285" /></svg>