<?xml version="1.0" standalone="no"?><!DOCTYPE svg PUBLIC "-//W3C//DTD SVG 1.1//EN" "http://www.w3.org/Graphics/SVG/1.1/DTD/svg11.dtd"><svg t="1563106077631" class="icon" viewBox="0 0 1234 1024" version="1.1" xmlns="http://www.w3.org/2000/svg" p-id="2099" xmlns:xlink="http://www.w3.org/1999/xlink" width="241.015625" height="200"><defs><style type="text/css"></style></defs><path d="M256.756037 340.274243a43.333383 43.333383 0 0 1-43.342953-43.333383V189.554841a43.333383 43.333383 0 0 1 86.676337 0v107.376449c0 23.944374-19.398579 43.342953-43.333384 43.342953zM581.919103 340.274243a43.333383 43.333383 0 0 1-43.333383-43.333383V189.554841a43.333383 43.333383 0 0 1 86.676336 0v107.376449c0 23.944374-19.40815 43.342953-43.333383 43.342953z" fill="#808285" p-id="2100"></path><path d="M581.919103 146.211888v194.062355c23.934804 0 43.342953-19.398579 43.342953-43.333383V189.554841a43.333383 43.333383 0 0 0-43.333383-43.333383z" fill="#58595B" p-id="2101"></path><path d="M991.729645 621.271327h-943.611215A43.333383 43.333383 0 0 1 4.785047 577.937944V296.93129c0-23.925234 19.398579-43.333383 43.333383-43.333383h796.164785c16.106467 0 30.892262 8.938467 38.376075 23.207476l147.44643 280.997084a43.333383 43.333383 0 0 1-38.376075 63.46886z" fill="#D1D3D4" p-id="2102"></path><path d="M1030.10572 557.802467L882.65929 276.805383a43.333383 43.333383 0 0 0-38.376075-23.197906H581.919103v367.66385h409.810542a43.333383 43.333383 0 0 0 38.376075-63.46886z" fill="#BCBEC0" p-id="2103"></path><path d="M581.919103 621.032075c23.934804 0 43.342953-19.40815 43.342953-43.342954V253.607477h-86.676336v324.081644c0 23.934804 19.398579 43.342953 43.342953 43.342954zM256.756037 621.032075c23.925234 0 43.333383-19.40815 43.333384-43.342954V253.607477h-86.666767v324.081644c0 23.934804 19.398579 43.342953 43.333383 43.342954z" fill="#A7A9AC" p-id="2104"></path><path d="M1186.423626 902.249271H935.055551a43.333383 43.333383 0 0 1-43.342953-43.333383c0-92.447103-139.953047-92.475813-139.953047 0 0 23.934804-19.398579 43.333383-43.333383 43.333383H479.940187a43.333383 43.333383 0 0 1-43.333383-43.333383c0-92.456673-139.991327-92.456673-139.991327 0 0 23.934804-19.398579 43.333383-43.333384 43.333383H48.13757A43.342953 43.342953 0 0 1 4.785047 858.915888V577.937944c0-23.925234 19.398579-43.333383 43.333383-43.333383h1138.305196c23.925234 0 43.333383 19.398579 43.333383 43.333383v280.977944a43.333383 43.333383 0 0 1-43.333383 43.333383z" fill="#48AEE2" p-id="2105"></path><path d="M231.959925 902.268411H48.11843A43.333383 43.333383 0 0 1 4.785047 858.925458v-183.841495h183.841495c23.925234 0 43.333383 19.40815 43.333383 43.342953v183.841495z" fill="#F59D00" p-id="2106"></path><path d="M366.61114 1015.578318c-86.389234 0-156.66243-70.282766-156.66243-156.66243 0-86.370093 70.273196-156.63372 156.66243-156.63372 86.379664 0 156.66243 70.263626 156.66243 156.63372 0 86.389234-70.273196 156.66243-156.66243 156.66243z" fill="#808285" p-id="2107"></path><path d="M578.760972 232.888224H259.923738c-63.200897 0-114.630579-51.420112-114.630579-114.630579C145.283589 55.056748 196.703701 3.636636 259.923738 3.636636h318.846804c63.210467 0 114.630579 51.420112 114.630579 114.630579 0 63.200897-51.420112 114.621009-114.630579 114.621009z" fill="#F59D00" p-id="2108"></path><path d="M375.999402 3.636636h86.666766v229.251588h-86.666766z" fill="#E87E04" p-id="2109"></path><path d="M581.919103 253.607477v367.415028c23.934804 0 43.342953-19.398579 43.342953-43.333384V253.607477h-43.333383z" fill="#939598" p-id="2110"></path><path d="M1186.423626 534.604561H581.928673v367.64471h126.497495c23.925234 0 43.333383-19.398579 43.333383-43.333383 0-92.447103 139.953047-92.485383 139.953047 0 0 23.925234 19.40815 43.333383 43.333383 43.333383h251.377645c23.925234 0 43.333383-19.398579 43.333383-43.333383V577.937944c0-23.925234-19.40815-43.333383-43.333383-43.333383z" fill="#39A3DB" p-id="2111"></path><path d="M1229.757009 761.779439h-183.841495a43.333383 43.333383 0 0 1-43.333383-43.333383v-183.841495h183.841495c23.925234 0 43.333383 19.398579 43.333383 43.333383V761.779439zM693.391551 118.267215c0-62.148187-49.726206-112.860112-111.472448-114.554019v229.098468c61.746243-1.684336 111.472449-52.405832 111.472448-114.554019z" fill="#E87E04" p-id="2112"></path><path d="M821.755215 1015.578318c-86.389234 0-156.66243-70.282766-156.66243-156.66243 0-86.370093 70.273196-156.63372 156.66243-156.63372 86.370093 0 156.63372 70.263626 156.63372 156.63372 0 86.389234-70.273196 156.66243-156.63372 156.66243z" fill="#6D6E71" p-id="2113"></path><path d="M645.196561 761.769869h-55.851066a43.333383 43.333383 0 0 1 0-86.676336h55.851066a43.333383 43.333383 0 0 1 0 86.666766z" fill="#3797D3" p-id="2114"></path><path d="M645.196561 675.093533h-55.851066c-2.536075 0-5.005159 0.267963-7.426392 0.679476v85.317384c2.421234 0.411514 4.880748 0.669907 7.426392 0.669906h55.851066a43.333383 43.333383 0 0 0 0-86.666766z" fill="#4881C2" p-id="2115"></path></svg>